0
SECTION
2
HEADER
9
$INSUNITS
70
4
9
$ACADVER
1
AC1014
9
$HANDSEED
5
FFFF
0
ENDSEC
0
SECTION
2
TABLES
0
TABLE
2
VPORT
5
8
100
AcDbSymbolTable
0
ENDTAB
0
TABLE
2
LTYPE
5
5
100
AcDbSymbolTable
0
LTYPE
5
14
100
AcDbSymbolTableRecord
100
AcDbLinetypeTableRecord
2
BYBLOCK
70
0
0
LTYPE
5
15
100
AcDbSymbolTableRecord
100
AcDbLinetypeTableRecord
2
BYLAYER
70
0
0
ENDTAB
0
TABLE
2
LAYER
5
2
100
AcDbSymbolTable
70
2
0
LAYER
5
50
100
AcDbSymbolTableRecord
100
AcDbLayerTableRecord
2
0
70
0
6
CONTINUOUS
0
ENDTAB
0
TABLE
2
STYLE
5
3
100
AcDbSymbolTable
70
1
0
STYLE
5
11
100
AcDbSymbolTableRecord
100
AcDbTextStyleTableRecord
2
STANDARD
70
0
0
ENDTAB
0
TABLE
2
VIEW
5
6
100
AcDbSymbolTable
70
0
0
ENDTAB
0
TABLE
2
UCS
5
7
100
AcDbSymbolTable
70
0
0
ENDTAB
0
TABLE
2
APPID
5
9
100
AcDbSymbolTable
70
2
0
APPID
5
12
100
AcDbSymbolTableRecord
100
AcDbRegAppTableRecord
2
ACAD
70
0
0
ENDTAB
0
TABLE
2
DIMSTYLE
5
A
100
AcDbSymbolTable
70
1
0
ENDTAB
0
TABLE
2
BLOCK_RECORD
5
1
100
AcDbSymbolTable
70
1
0
BLOCK_RECORD
5
1F
100
AcDbSymbolTableRecord
100
AcDbBlockTableRecord
2
*MODEL_SPACE
0
BLOCK_RECORD
5
1B
100
AcDbSymbolTableRecord
100
AcDbBlockTableRecord
2
*PAPER_SPACE
0
ENDTAB
0
ENDSEC
0
SECTION
2
BLOCKS
0
BLOCK
5
20
100
AcDbEntity
100
AcDbBlockBegin
2
*MODEL_SPACE
0
ENDBLK
5
21
100
AcDbEntity
100
AcDbBlockEnd
0
BLOCK
5
1C
100
AcDbEntity
100
AcDbBlockBegin
2
*PAPER_SPACE
0
ENDBLK
5
1D
100
AcDbEntity
100
AcDbBlockEnd
0
ENDSEC
0
SECTION
2
ENTITIES
0
LWPOLYLINE
5
100
100
AcDbEntity
8
0
100
AcDbPolyline
90
15
70
1
43
0.0
10
269.22500000000008
20
-60.219723090152073
42
-0.41421356237312101
10
268.72500000000002
20
-60.71972309015208
10
268.49425000000002
20
-60.719723090152073
42
0.4142135623730222
10
267.99425000000002
20
-61.219723090152065
10
267.99425000000002
20
-75.219723090152073
42
0.41421356237312101
10
268.49425000000002
20
-75.719723090152058
10
274.49425000000008
20
-75.719723090152073
42
0.4142135623730222
10
274.99425000000008
20
-75.219723090152073
10
274.99425000000008
20
-74.219723090152058
42
-0.4142135623730222
10
275.49425000000008
20
-73.719723090152058
10
282.72500000000002
20
-73.719723090152058
42
0.414213562373069
10
283.22500000000002
20
-73.219723090152073
10
283.22500000000002
20
-60.219723090152073
42
0.41421356237313145
10
282.72500000000002
20
-59.719723090152065
10
269.72500000000002
20
-59.719723090152073
42
0.4142135623730222
0
LWPOLYLINE
5
101
100
AcDbEntity
8
0
100
AcDbPolyline
90
48
70
1
43
0.0
10
248.38075000000003
20
-54.66972309015204
42
-0.4142135623730222
10
248.88075000000003
20
-55.169723090152061
10
248.88075000000001
20
-56.169723090152068
42
0.41421356237313667
10
249.38075000000001
20
-56.669723090152068
10
255.38075000000003
20
-56.669723090152068
42
0.41421356237307422
10
255.88075000000003
20
-56.169723090152068
10
255.88075000000001
20
-55.169723090152061
42
-0.41421356237307422
10
256.38075000000003
20
-54.669723090152061
10
270.81875000000002
20
-54.669723090152075
42
0.4142135623730222
10
271.31875000000002
20
-54.169723090152075
10
271.31875000000008
20
-54.082723090152058
42
-0.4142135623730222
10
271.81875000000002
20
-53.582723090152058
10
272.25675000000001
20
-53.582723090152029
42
-0.41421356237301699
10
272.75675000000001
20
-54.082723090152044
10
272.75675000000001
20
-56.169723090152068
42
0.41421356237312623
10
273.25675000000001
20
-56.669723090152068
10
279.25675000000001
20
-56.669723090152068
42
0.414213562373069
10
279.75675000000001
20
-56.169723090152075
10
279.75675000000001
20
-45.64472309015207
42
-0.41421356237307422
10
280.25675000000001
20
-45.14472309015207
10
280.34375
20
-45.144723090152056
42
0.41421356237307422
10
280.84375
20
-44.644723090152063
10
280.84375
20
-31.644723090152066
42
0.41421356237313406
10
280.34375
20
-31.144723090152059
10
278.96250000000003
20
-31.144723090152073
42
-0.41421356237304818
10
278.46250000000003
20
-30.644723090152077
10
278.46250000000003
20
-30.206723090152071
42
-0.41421356237305079
10
278.96250000000003
20
-29.706723090152067
10
279.34375
20
-29.70672309015206
42
0.41421356237304563
10
279.84375000000006
20
-29.20672309015206
10
279.84375000000006
20
-23.20672309015206
42
0.41421356237310281
10
279.34375
20
-22.706723090152067
10
278.96250000000003
20
-22.706723090152067
42
-0.41421356237305079
10
278.46250000000003
20
-22.206723090152064
10
278.46250000000003
20
-22.119723090152064
42
0.41421356237310025
10
277.96249999999998
20
-21.619723090152071
10
264.96249999999998
20
-21.619723090152068
42
0.41421356237307161
10
264.46249999999998
20
-22.119723090152057
10
264.46249999999998
20
-35.119723090152071
42
0.41421356237313145
10
264.96249999999998
20
-35.619723090152064
10
266.34375000000006
20
-35.6197230901521
42
-0.4142135623730534
10
266.84375
20
-36.119723090152071
10
266.84375000000006
20
-40.169723090152061
42
-0.41421356237307422
10
266.34375
20
-40.669723090152061
10
245.91250000000002
20
-40.669723090152061
42
0.4142135623730222
10
245.41250000000002
20
-41.169723090152061
10
245.41250000000002
20
-54.169723090152075
42
0.41421356237312623
10
245.91250000000002
20
-54.669723090152061
0
LWPOLYLINE
5
102
100
AcDbEntity
8
0
100
AcDbPolyline
90
64
70
1
43
0.0
10
2.0000000000000009
20
-95.294723090152061
42
-0.41421356237309548
10
0
20
-93.294723090152075
10
-5.5511151231257827e-16
20
-68.044723090152047
42
0.41421356237308982
10
-0.50000000000000044
20
-67.544723090152061
10
-5.5
20
-67.544723090152061
42
-0.4142135623730937
10
-6.0000000000000009
20
-67.044723090152061
10
-6
20
-13.044723090152068
42
-0.41421356237309437
10
-5.5
20
-12.544723090152068
10
-0.50000000000000056
20
-12.544723090152063
42
0.41421356237309537
10
0
20
-12.044723090152063
10
-2.7755575615628914e-16
20
-2.0447230901520688
42
-0.41421356237309515
10
2.0000000000000004
20
-0.044723090152067727
10
4.5
20
-0.044723090152066977
42
0.41421356237309576
10
5
20
0.45527690984793423
10
5
20
5.4552769098479326
42
-0.41421356237309959
10
5.5000000000000071
20
5.9552769098479317
10
114.5
20
5.9552769098479228
42
-0.41421356237310675
10
115
20
5.4552769098479317
10
115
20
0.45527690984793234
42
0.41421356237309503
10
115.5
20
-0.044723090152067727
10
170.25000000000006
20
-0.044723090152066977
42
0.41421356237309509
10
170.75000000000003
20
0.45527690984793312
10
170.75
20
5.4552769098479272
42
-0.41421356237307616
10
171.25000000000003
20
5.9552769098479272
10
280.25000000000006
20
5.9552769098479228
42
-0.41421356237302609
10
280.75
20
5.4552769098479272
10
280.75
20
0.45527690984793234
42
0.41421356237309503
10
281.25000000000006
20
-0.044723090152067727
10
283.75
20
-0.044723090152028466
42
-0.41421356237309626
10
285.75
20
-2.0447230901520652
10
285.75
20
-12.044723090152063
42
0.41421356237309631
10
286.25000000000006
20
-12.544723090152068
10
291.25000000000006
20
-12.544723090152106
42
-0.41421356237304302
10
291.75000000000006
20
-13.044723090152059
10
291.75000000000006
20
-67.044723090152061
42
-0.41421356237307422
10
291.25000000000006
20
-67.544723090152061
10
286.25
20
-67.544723090152061
42
0.41421356237308982
10
285.75
20
-68.044723090152047
10
285.75
20
-93.294723090152075
42
-0.41421356237309503
10
283.75000000000006
20
-95.294723090152061
10
281.25
20
-95.294723090152061
42
0.4142135623730846
10
280.75
20
-95.794723090152047
10
280.75
20
-100.79472309015208
42
-0.41421356237309503
10
280.25
20
-101.29472309015208
10
171.25
20
-101.29472309015202
42
-0.41421356237307422
10
170.75000000000003
20
-100.79472309015209
10
170.75000000000003
20
-95.794723090152047
42
0.41421356237309503
10
170.25000000000003
20
-95.294723090152061
10
152.90000000000003
20
-95.294723090152104
42
-0.41421356237309681
10
149.875
20
-92.26972309015207
10
149.875
20
-79.269723090152041
42
0.41421356237309503
10
149.375
20
-78.769723090152041
10
124.46875
20
-78.76972309015207
42
0.41421356237311063
10
123.96875
20
-79.269723090152084
10
123.96874999999996
20
-92.269723090152084
42
-0.41421356237308299
10
120.94375000000011
20
-95.294723090152061
10
115.5
20
-95.294723090152061
42
0.4142135623730846
10
115
20
-95.794723090152047
10
115
20
-100.79472309015208
42
-0.41421356237307422
10
114.5
20
-101.29472309015208
10
5.5000000000000071
20
-101.29472309015208
42
-0.41421356237306578
10
5
20
-100.79472309015209
10
4.9999999999999991
20
-95.794723090152047
42
0.41421356237309503
10
4.5
20
-95.294723090152061
0
LWPOLYLINE
5
103
100
AcDbEntity
8
0
100
AcDbPolyline
90
24
70
1
43
0.0
10
36.869250000000008
20
-74.219723090152058
42
-0.41421356237309503
10
37.369250000000001
20
-73.719723090152058
10
39.837499999999999
20
-73.719723090152058
42
0.41421356237310802
10
40.337500000000013
20
-73.219723090152073
10
40.337500000000006
20
-60.219723090152073
42
0.41421356237310281
10
39.837500000000006
20
-59.719723090152065
10
5.40625
20
-59.719723090152073
42
0.41421356237308787
10
4.9062500000000142
20
-60.219723090152058
10
4.90625
20
-73.219723090152058
42
0.41421356237308593
10
5.4062499999999858
20
-73.719723090152058
10
5.4932499999999997
20
-73.719723090152058
42
-0.41421356237309437
10
5.9932499999999997
20
-74.219723090152058
10
5.9932499999999997
20
-75.219723090152058
42
0.4142135623731022
10
6.4932500000000104
20
-75.719723090152058
10
12.49325
20
-75.719723090152058
42
0.41421356237309764
10
12.993249999999996
20
-75.219723090152058
10
12.993250000000007
20
-74.219723090152058
42
-0.4142135623730937
10
13.493250000000003
20
-73.719723090152058
10
29.369250000000005
20
-73.719723090152058
42
-0.41421356237309503
10
29.869250000000001
20
-74.219723090152058
10
29.869250000000001
20
-75.219723090152058
42
0.41421356237309764
10
30.369250000000001
20
-75.719723090152058
10
36.369250000000001
20
-75.719723090152058
42
0.41421356237309764
10
36.869250000000008
20
-75.219723090152058
0
CIRCLE
5
104
100
AcDbEntity
8
0
100
AcDbCircle
10
82.875
20
-38.144579040030727
30
-6.9388939039072284e-16
40
1.6249999999999964
210
0
220
-1.387778780781446e-17
230
1
0
CIRCLE
5
105
100
AcDbEntity
8
0
100
AcDbCircle
10
202.875
20
-38.144579040030727
30
-6.9388939039072284e-16
40
1.6250000000000142
210
0
220
0
230
1
0
CIRCLE
5
106
100
AcDbEntity
8
0
100
AcDbCircle
10
27.874999999999996
20
-38.144579040030749
30
-6.9388939039072284e-16
40
1.6250000000000011
210
0
220
1.3877787807814457e-17
230
1
0
CIRCLE
5
107
100
AcDbEntity
8
0
100
AcDbCircle
10
257.875
20
-38.144579040030749
30
-6.9388939039072284e-16
40
1.6250000000000142
210
0
220
0
230
1
0
LWPOLYLINE
5
108
100
AcDbEntity
8
0
100
AcDbPolyline
90
8
70
1
43
0.0
10
110
20
-0.54472309015206777
10
110
20
0.45527690984793201
42
0.4142135623730952
10
109.5
20
0.95527690984793212
10
10.500000000000007
20
0.95527690984793212
42
0.41421356237310025
10
10
20
0.45527690984793234
10
9.9999999999999982
20
-0.54472309015206744
42
0.41421356237310036
10
10.500000000000007
20
-1.0447230901520677
10
109.5
20
-1.0447230901520677
42
0.41421356237309498
0
LWPOLYLINE
5
109
100
AcDbEntity
8
0
100
AcDbPolyline
90
14
70
1
43
0.0
10
203.02500000000003
20
-76.76972309015207
42
-0.41421356237312623
10
203.52500000000003
20
-77.26972309015207
10
203.52500000000003
20
-78.76972309015207
10
208.90625
20
-78.769723090152084
42
-0.41421356237312101
10
209.40625
20
-79.26972309015207
10
209.40625000000006
20
-92.26972309015207
42
-0.41421356237309503
10
208.90625
20
-92.769723090152084
10
195.90625000000003
20
-92.76972309015207
42
-0.4142135623730846
10
195.40625000000003
20
-92.269723090152084
10
195.40625000000006
20
-79.269723090152084
42
-0.41421356237303258
10
195.90625000000003
20
-78.76972309015207
10
196.52500000000003
20
-78.76972309015207
10
196.52500000000003
20
-77.26972309015207
42
-0.41421356237302737
10
197.02500000000001
20
-76.76972309015207
0
LWPOLYLINE
5
110
100
AcDbEntity
8
0
100
AcDbPolyline
90
8
70
1
43
0.0
10
264.46250000000009
20
-79.269723090152041
42
-0.4142135623730222
10
264.96250000000003
20
-78.769723090152041
10
280.34375
20
-78.76972309015207
42
-0.41421356237313145
10
280.84375
20
-79.26972309015207
10
280.84375
20
-92.26972309015207
42
-0.41421356237310542
10
280.34375
20
-92.769723090152084
10
264.96250000000003
20
-92.76972309015207
42
-0.4142135623730846
10
264.46250000000003
20
-92.269723090152084
0
LWPOLYLINE
5
111
100
AcDbEntity
8
0
100
AcDbPolyline
90
8
70
1
43
0.0
10
240.65000000000003
20
-79.269723090152041
42
-0.4142135623730222
10
241.15000000000003
20
-78.769723090152041
10
256.53125
20
-78.769723090152084
42
-0.41421356237312101
10
257.03125000000006
20
-79.26972309015207
10
257.03125000000006
20
-92.26972309015207
42
-0.41421356237309503
10
256.53125
20
-92.769723090152084
10
241.15000000000003
20
-92.76972309015207
42
-0.4142135623730846
10
240.65000000000001
20
-92.269723090152084
0
LWPOLYLINE
5
112
100
AcDbEntity
8
0
100
AcDbPolyline
90
8
70
1
43
0.0
10
217.33750000000003
20
-92.769723090152084
10
232.71875
20
-92.769723090152084
42
0.41421356237309503
10
233.21875000000003
20
-92.26972309015207
10
233.21875000000003
20
-79.26972309015207
42
0.41421356237312101
10
232.71875
20
-78.76972309015207
10
217.33750000000003
20
-78.769723090152041
42
0.4142135623730846
10
216.83750000000003
20
-79.26972309015207
10
216.83750000000003
20
-92.269723090152084
42
0.41421356237309503
0
LWPOLYLINE
5
113
100
AcDbEntity
8
0
100
AcDbPolyline
90
8
70
1
43
0.0
10
89.225000000000009
20
-91.26972309015207
42
-0.4142135623730534
10
88.725000000000009
20
-91.76972309015207
10
77.96875
20
-91.769723090152056
42
-0.41421356237310542
10
77.46875
20
-91.26972309015207
10
77.468750000000014
20
-77.269723090152056
42
-0.41421356237309503
10
77.968750000000014
20
-76.76972309015207
10
88.724999999999994
20
-76.769723090152041
42
-0.41421356237307944
10
89.225000000000009
20
-77.26972309015207
0
LWPOLYLINE
5
114
100
AcDbEntity
8
0
100
AcDbPolyline
90
8
70
1
43
0.0
10
184.46875000000003
20
-91.269723090152084
10
184.46875000000003
20
-77.26972309015207
42
0.41421356237312101
10
183.96875
20
-76.769723090152056
10
177.96875
20
-76.76972309015207
42
0.41421356237304302
10
177.46875
20
-77.269723090152056
10
177.46875
20
-91.26972309015207
42
0.4142135623730846
10
177.96875
20
-91.76972309015207
10
183.96875
20
-91.76972309015207
42
0.41421356237307422
0
LWPOLYLINE
5
115
100
AcDbEntity
8
0
100
AcDbPolyline
90
8
70
1
43
0.0
10
240.65000000000001
20
-22.119723090152057
10
240.65000000000001
20
-35.119723090152071
42
0.41421356237310025
10
241.15000000000003
20
-35.619723090152064
10
254.15000000000003
20
-35.619723090152071
42
0.41421356237307683
10
254.65000000000003
20
-35.119723090152071
10
254.65000000000003
20
-22.119723090152064
42
0.41421356237313145
10
254.15000000000003
20
-21.619723090152071
10
241.15000000000003
20
-21.619723090152068
42
0.41421356237304041
0
LWPOLYLINE
5
116
100
AcDbEntity
8
0
100
AcDbPolyline
90
8
70
1
43
0.0
10
145.40000000000003
20
-22.119723090152064
42
-0.41421356237310025
10
145.90000000000001
20
-21.619723090152068
10
158.90000000000001
20
-21.619723090152064
42
-0.41421356237309243
10
159.40000000000001
20
-22.119723090152064
10
159.40000000000001
20
-35.119723090152071
42
-0.41421356237310542
10
158.90000000000001
20
-35.619723090152071
10
145.90000000000001
20
-35.619723090152078
42
-0.41421356237307161
10
145.40000000000001
20
-35.119723090152071
0
LWPOLYLINE
5
117
100
AcDbEntity
8
0
100
AcDbPolyline
90
8
70
1
43
0.0
10
64.4375
20
-60.219723090152073
42
-0.41421356237309503
10
64.9375
20
-59.719723090152073
10
77.9375
20
-59.719723090152073
42
-0.41421356237310025
10
78.4375
20
-60.219723090152073
10
78.4375
20
-73.219723090152073
42
-0.41421356237308982
10
77.9375
20
-73.719723090152058
10
64.9375
20
-73.719723090152058
42
-0.41421356237309503
10
64.4375
20
-73.219723090152058
0
LWPOLYLINE
5
118
100
AcDbEntity
8
0
100
AcDbPolyline
90
8
70
1
43
0.0
10
0.49999999999999994
20
-15.044723090152065
10
-0.50000000000000011
20
-15.044723090152065
42
0.41421356237310414
10
-1.0000000000000002
20
-15.544723090152086
10
-1
20
-64.544723090152075
42
0.41421356237309503
10
-0.5
20
-65.044723090152061
10
0.5
20
-65.044723090152061
42
0.41421356237309509
10
1.0000000000000002
20
-64.544723090152061
10
1
20
-15.544723090152067
42
0.41421356237309503
0
LWPOLYLINE
5
119
100
AcDbEntity
8
0
100
AcDbPolyline
90
8
70
1
43
0.0
10
109.50000000000003
20
-94.294723090152075
10
10.50000000000005
20
-94.294723090152075
42
0.41421356237309503
10
10.00000000000005
20
-94.794723090152075
10
10.00000000000006
20
-95.79472309015209
42
0.41421356237309503
10
10.50000000000006
20
-96.294723090152075
10
109.50000000000004
20
-96.294723090152075
42
0.41421356237309503
10
110.00000000000006
20
-95.794723090152075
10
110.00000000000006
20
-94.794723090152061
42
0.41421356237310542
0
LWPOLYLINE
5
120
100
AcDbEntity
8
0
100
AcDbPolyline
90
8
70
1
43
0.0
10
286.75000000000006
20
-64.544723090152061
10
286.75000000000006
20
-15.544723090152075
42
0.41421356237310025
10
286.25000000000006
20
-15.044723090152065
10
285.25
20
-15.04472309015207
42
0.4142135623730937
10
284.75
20
-15.544723090152068
10
284.75
20
-64.544723090152075
42
0.41421356237308982
10
285.25
20
-65.044723090152061
10
286.25000000000006
20
-65.044723090152061
42
0.41421356237309503
0
LWPOLYLINE
5
121
100
AcDbEntity
8
0
100
AcDbPolyline
90
8
70
1
43
0.0
10
275.25
20
0.95527690984792857
10
176.25
20
0.95527690984792857
42
0.41421356237309498
10
175.75000000000003
20
0.45527690984792879
10
175.75000000000003
20
-0.5447230901520641
42
0.41421356237309503
10
176.25000000000003
20
-1.0447230901520641
10
275.25000000000006
20
-1.0447230901520643
42
0.4142135623730952
10
275.75
20
-0.54472309015206399
10
275.75
20
0.45527690984792862
42
0.41421356237309503
0
LWPOLYLINE
5
122
100
AcDbEntity
8
0
100
AcDbPolyline
90
8
70
1
43
0.0
10
101.75
20
-21.619723090152064
42
-0.41421356237309243
10
102.25000000000001
20
-22.119723090152064
10
102.25000000000001
20
-35.119723090152071
42
-0.41421356237310542
10
101.75
20
-35.619723090152071
10
88.75
20
-35.619723090152078
42
-0.41421356237309243
10
88.25
20
-35.119723090152071
10
88.25
20
-22.119723090152057
42
-0.41421356237310025
10
88.75
20
-21.619723090152068
0
LWPOLYLINE
5
123
100
AcDbEntity
8
0
100
AcDbPolyline
90
8
70
1
43
0.0
10
178.73749999999998
20
-60.219723090152073
42
-0.41421356237307422
10
179.23750000000001
20
-59.719723090152073
10
192.23750000000001
20
-59.719723090152087
42
-0.41421356237312101
10
192.73750000000004
20
-60.219723090152073
10
192.73750000000001
20
-73.219723090152073
42
-0.41421356237301699
10
192.23750000000001
20
-73.719723090152058
10
179.23750000000001
20
-73.719723090152058
42
-0.41421356237313145
10
178.73750000000001
20
-73.219723090152058
0
LWPOLYLINE
5
124
100
AcDbEntity
8
0
100
AcDbPolyline
90
8
70
1
43
0.0
10
207.31250000000003
20
-41.169723090152061
42
-0.4142135623730222
10
207.8125
20
-40.669723090152061
10
220.8125
20
-40.669723090152061
42
-0.41421356237313145
10
221.3125
20
-41.169723090152061
10
221.31250000000006
20
-54.169723090152075
42
-0.41421356237307422
10
220.8125
20
-54.669723090152075
10
207.8125
20
-54.669723090152061
42
-0.41421356237312623
10
207.3125
20
-54.169723090152075
0
LWPOLYLINE
5
125
100
AcDbEntity
8
0
100
AcDbPolyline
90
8
70
1
43
0.0
10
102.53749999999999
20
-60.219723090152073
42
-0.41421356237308982
10
103.03750000000001
20
-59.719723090152073
10
116.03749999999999
20
-59.719723090152065
42
-0.41421356237307422
10
116.53750000000001
20
-60.219723090152073
10
116.53749999999999
20
-73.219723090152073
42
-0.41421356237309503
10
116.03749999999999
20
-73.719723090152058
10
103.03750000000001
20
-73.719723090152073
42
-0.41421356237309503
10
102.53749999999999
20
-73.219723090152058
0
LWPOLYLINE
5
126
100
AcDbEntity
8
0
100
AcDbPolyline
90
8
70
1
43
0.0
10
40.625
20
-3.0697230901520678
42
-0.41421356237309404
10
41.125
20
-2.5697230901520678
10
54.125000000000014
20
-2.5697230901520705
42
-0.41421356237308915
10
54.625
20
-3.0697230901520678
10
54.625
20
-16.069723090152056
42
-0.41421356237310025
10
54.125000000000007
20
-16.569723090152067
10
41.125000000000007
20
-16.569723090152067
42
-0.41421356237310025
10
40.625
20
-16.069723090152067
0
LWPOLYLINE
5
127
100
AcDbEntity
8
0
100
AcDbPolyline
90
8
70
1
43
0.0
10
135.875
20
-3.0697230901520678
42
-0.41421356237307422
10
136.375
20
-2.5697230901520678
10
149.375
20
-2.5697230901520616
42
-0.41421356237309437
10
149.875
20
-3.0697230901520678
10
149.875
20
-16.069723090152056
42
-0.41421356237311324
10
149.375
20
-16.569723090152067
10
136.375
20
-16.569723090152074
42
-0.41421356237307422
10
135.875
20
-16.069723090152067
0
LWPOLYLINE
5
128
100
AcDbEntity
8
0
100
AcDbPolyline
90
8
70
1
43
0.0
10
35.862500000000004
20
-41.169723090152061
42
-0.41421356237309503
10
36.362499999999997
20
-40.669723090152061
10
49.362500000000011
20
-40.669723090152061
42
-0.41421356237308982
10
49.862499999999997
20
-41.169723090152061
10
49.862499999999997
20
-54.169723090152075
42
-0.41421356237309503
10
49.362500000000004
20
-54.669723090152075
10
36.362500000000004
20
-54.669723090152061
42
-0.41421356237310025
10
35.862500000000004
20
-54.169723090152075
0
LWPOLYLINE
5
129
100
AcDbEntity
8
0
100
AcDbPolyline
90
8
70
1
43
0.0
10
106.51250000000002
20
-40.669723090152054
42
-0.41421356237309503
10
107.01250000000002
20
-41.169723090152061
10
107.01250000000002
20
-54.169723090152075
42
-0.41421356237310542
10
106.51250000000002
20
-54.669723090152075
10
93.512500000000003
20
-54.66972309015209
42
-0.41421356237310025
10
93.012499999999989
20
-54.169723090152075
10
93.012499999999989
20
-41.169723090152061
42
-0.41421356237308982
10
93.512500000000003
20
-40.669723090152061
0
LWPOLYLINE
5
130
100
AcDbEntity
8
0
100
AcDbPolyline
90
8
70
1
43
0.0
10
31.100000000000001
20
-22.119723090152064
42
-0.41421356237309503
10
31.600000000000001
20
-21.619723090152068
10
44.600000000000009
20
-21.619723090152068
42
-0.41421356237308982
10
45.099999999999994
20
-22.119723090152064
10
45.099999999999994
20
-35.119723090152071
42
-0.41421356237309503
10
44.600000000000001
20
-35.619723090152071
10
31.600000000000001
20
-35.619723090152071
42
-0.41421356237309503
10
31.100000000000001
20
-35.119723090152071
0
LWPOLYLINE
5
131
100
AcDbEntity
8
0
100
AcDbPolyline
90
8
70
1
43
0.0
10
164.44999999999996
20
-22.119723090152064
42
-0.41421356237307683
10
164.95000000000002
20
-21.619723090152068
10
177.94999999999999
20
-21.619723090152068
42
-0.41421356237313145
10
178.44999999999999
20
-22.119723090152064
10
178.45000000000002
20
-35.119723090152071
42
-0.41421356237307683
10
177.94999999999999
20
-35.619723090152071
10
164.95000000000002
20
-35.619723090152071
42
-0.41421356237313145
10
164.44999999999999
20
-35.119723090152071
0
LWPOLYLINE
5
132
100
AcDbEntity
8
0
100
AcDbPolyline
90
8
70
1
43
0.0
10
154.92500000000001
20
-3.0697230901520678
42
-0.41421356237307422
10
155.42500000000001
20
-2.5697230901520678
10
168.42500000000001
20
-2.5697230901520496
42
-0.41421356237310153
10
168.92500000000001
20
-3.0697230901520678
10
168.92500000000001
20
-16.069723090152056
42
-0.4142135623730534
10
168.42500000000001
20
-16.569723090152067
10
155.42500000000001
20
-16.569723090152074
42
-0.41421356237307422
10
154.92500000000001
20
-16.069723090152067
0
LWPOLYLINE
5
133
100
AcDbEntity
8
0
100
AcDbPolyline
90
8
70
1
43
0.0
10
211.28749999999999
20
-59.719723090152073
42
-0.41421356237313145
10
211.78750000000002
20
-60.219723090152073
10
211.78750000000005
20
-73.219723090152073
42
-0.414213562373069
10
211.28749999999999
20
-73.719723090152058
10
198.28749999999999
20
-73.719723090152044
42
-0.41421356237312101
10
197.78749999999999
20
-73.219723090152058
10
197.78750000000002
20
-60.219723090152058
42
-0.41421356237301699
10
198.28749999999999
20
-59.719723090152073
0
LWPOLYLINE
5
134
100
AcDbEntity
8
0
100
AcDbPolyline
90
8
70
1
43
0.0
10
130.32499999999999
20
-2.5697230901520616
42
-0.41421356237309437
10
130.82499999999999
20
-3.0697230901520678
10
130.82499999999999
20
-16.069723090152056
42
-0.41421356237311324
10
130.32499999999999
20
-16.569723090152067
10
117.32500000000002
20
-16.569723090152074
42
-0.41421356237309503
10
116.82500000000002
20
-16.069723090152067
10
116.82499999999999
20
-3.0697230901520722
42
-0.41421356237310802
10
117.32500000000002
20
-2.5697230901520678
0
LWPOLYLINE
5
135
100
AcDbEntity
8
0
100
AcDbPolyline
90
8
70
1
43
0.0
10
69.200000000000017
20
-22.119723090152064
42
-0.41421356237309764
10
69.700000000000003
20
-21.619723090152068
10
82.700000000000017
20
-21.619723090152064
42
-0.41421356237307161
10
83.200000000000017
20
-22.119723090152064
10
83.200000000000003
20
-35.119723090152071
42
-0.41421356237310025
10
82.700000000000017
20
-35.619723090152071
10
69.700000000000003
20
-35.619723090152078
42
-0.41421356237309764
10
69.200000000000003
20
-35.119723090152071
0
LWPOLYLINE
5
136
100
AcDbEntity
8
0
100
AcDbPolyline
90
8
70
1
43
0.0
10
45.387500000000003
20
-60.219723090152073
42
-0.41421356237309503
10
45.887500000000003
20
-59.719723090152073
10
58.887500000000017
20
-59.719723090152073
42
-0.41421356237308982
10
59.387500000000003
20
-60.219723090152073
10
59.387500000000003
20
-73.219723090152073
42
-0.41421356237308982
10
58.88750000000001
20
-73.719723090152058
10
45.88750000000001
20
-73.719723090152058
42
-0.41421356237310025
10
45.387500000000003
20
-73.219723090152058
0
LWPOLYLINE
5
137
100
AcDbEntity
8
0
100
AcDbPolyline
90
8
70
1
43
0.0
10
183.49999999999997
20
-22.119723090152064
42
-0.41421356237307683
10
184.00000000000003
20
-21.619723090152068
10
197.00000000000003
20
-21.61972309015205
42
-0.41421356237310025
10
197.50000000000003
20
-22.119723090152064
10
197.50000000000003
20
-35.119723090152071
42
-0.41421356237304563
10
197.00000000000003
20
-35.619723090152071
10
184.00000000000003
20
-35.619723090152071
42
-0.41421356237313145
10
183.5
20
-35.119723090152071
0
LWPOLYLINE
5
138
100
AcDbEntity
8
0
100
AcDbPolyline
90
8
70
1
43
0.0
10
163.66250000000002
20
-40.669723090152075
42
-0.41421356237312101
10
164.16250000000002
20
-41.169723090152061
10
164.16249999999997
20
-54.169723090152075
42
-0.4142135623730222
10
163.66250000000002
20
-54.669723090152075
10
150.66249999999999
20
-54.66972309015209
42
-0.41421356237310025
10
150.16249999999999
20
-54.169723090152075
10
150.16249999999999
20
-41.169723090152061
42
-0.41421356237308982
10
150.66249999999999
20
-40.669723090152061
0
LWPOLYLINE
5
139
100
AcDbEntity
8
0
100
AcDbPolyline
90
8
70
1
43
0.0
10
126.35000000000002
20
-22.119723090152064
42
-0.41421356237310025
10
126.85000000000001
20
-21.619723090152068
10
139.84999999999999
20
-21.619723090152064
42
-0.41421356237309243
10
140.34999999999999
20
-22.119723090152064
10
140.34999999999999
20
-35.119723090152071
42
-0.41421356237310542
10
139.84999999999999
20
-35.619723090152071
10
126.85000000000001
20
-35.619723090152078
42
-0.41421356237307161
10
126.34999999999999
20
-35.119723090152071
0
LWPOLYLINE
5
140
100
AcDbEntity
8
0
100
AcDbPolyline
90
8
70
1
43
0.0
10
2.5249999999999999
20
-3.0697230901520678
42
-0.41421356237309437
10
3.0249999999999999
20
-2.5697230901520678
10
16.024999999999991
20
-2.569723090152066
42
-0.41421356237309825
10
16.525000000000002
20
-3.0697230901520678
10
16.524999999999999
20
-16.069723090152056
42
-0.41421356237309764
10
16.024999999999999
20
-16.569723090152067
10
3.0249999999999844
20
-16.569723090152067
42
-0.41421356237308299
10
2.5249999999999999
20
-16.069723090152067
0
LWPOLYLINE
5
141
100
AcDbEntity
8
0
100
AcDbPolyline
90
8
70
1
43
0.0
10
154.13749999999999
20
-59.719723090152065
42
-0.41421356237309503
10
154.63750000000002
20
-60.219723090152073
10
154.63750000000002
20
-73.219723090152073
42
-0.4142135623730846
10
154.13749999999999
20
-73.719723090152058
10
141.13749999999999
20
-73.719723090152073
42
-0.41421356237309503
10
140.63749999999999
20
-73.219723090152058
10
140.63749999999999
20
-60.219723090152058
42
-0.4142135623730846
10
141.13749999999999
20
-59.719723090152073
0
LWPOLYLINE
5
142
100
AcDbEntity
8
0
100
AcDbPolyline
90
8
70
1
43
0.0
10
59.675000000000004
20
-3.0697230901520678
42
-0.41421356237309664
10
60.174999999999997
20
-2.5697230901520678
10
73.174999999999983
20
-2.5697230901520705
42
-0.41421356237309959
10
73.674999999999997
20
-3.0697230901520678
10
73.674999999999997
20
-16.069723090152056
42
-0.41421356237310025
10
73.174999999999997
20
-16.569723090152067
10
60.174999999999997
20
-16.56972309015207
42
-0.41421356237309764
10
59.675000000000004
20
-16.069723090152067
0
LWPOLYLINE
5
143
100
AcDbEntity
8
0
100
AcDbPolyline
90
8
70
1
43
0.0
10
159.6875
20
-60.219723090152073
42
-0.41421356237308982
10
160.1875
20
-59.719723090152073
10
173.1875
20
-59.719723090152087
42
-0.41421356237312101
10
173.68750000000003
20
-60.219723090152073
10
173.6875
20
-73.219723090152073
42
-0.41421356237301699
10
173.1875
20
-73.719723090152058
10
160.1875
20
-73.719723090152073
42
-0.41421356237309503
10
159.6875
20
-73.219723090152058
0
LWPOLYLINE
5
144
100
AcDbEntity
8
0
100
AcDbPolyline
90
8
70
1
43
0.0
10
121.58750000000001
20
-60.219723090152058
10
121.58750000000001
20
-73.219723090152058
42
0.41421356237309503
10
122.08750000000002
20
-73.719723090152073
10
135.08750000000001
20
-73.719723090152058
42
0.41421356237309503
10
135.58750000000001
20
-73.219723090152073
10
135.58750000000001
20
-60.219723090152073
42
0.41421356237307422
10
135.08750000000001
20
-59.719723090152065
10
122.08750000000002
20
-59.719723090152073
42
0.4142135623730846
0
LWPOLYLINE
5
145
100
AcDbEntity
8
0
100
AcDbPolyline
90
8
70
1
43
0.0
10
188.26250000000002
20
-41.169723090152061
42
-0.4142135623730222
10
188.76249999999999
20
-40.669723090152061
10
201.76249999999999
20
-40.669723090152061
42
-0.41421356237313145
10
202.26249999999999
20
-41.169723090152061
10
202.26250000000005
20
-54.169723090152075
42
-0.41421356237307422
10
201.76249999999999
20
-54.669723090152075
10
188.76249999999999
20
-54.669723090152061
42
-0.41421356237312623
10
188.26249999999999
20
-54.169723090152075
0
LWPOLYLINE
5
146
100
AcDbEntity
8
0
100
AcDbPolyline
90
8
70
1
43
0.0
10
239.86250000000001
20
-40.669723090152061
42
-0.41421356237313145
10
240.36250000000001
20
-41.169723090152061
10
240.36250000000007
20
-54.169723090152075
42
-0.41421356237307422
10
239.86250000000001
20
-54.669723090152075
10
226.86250000000001
20
-54.669723090152061
42
-0.41421356237312623
10
226.36250000000001
20
-54.169723090152075
10
226.36250000000004
20
-41.169723090152061
42
-0.4142135623730222
10
226.86250000000001
20
-40.669723090152061
0
LWPOLYLINE
5
147
100
AcDbEntity
8
0
100
AcDbPolyline
90
8
70
1
43
0.0
10
173.97499999999997
20
-3.0697230901520678
42
-0.41421356237307749
10
174.47500000000002
20
-2.5697230901520678
10
187.47499999999999
20
-2.5697230901520673
42
-0.41421356237313273
10
187.97499999999999
20
-3.0697230901520678
10
187.97500000000002
20
-16.069723090152056
42
-0.4142135623730846
10
187.47499999999999
20
-16.569723090152067
10
174.47500000000002
20
-16.569723090152067
42
-0.41421356237313273
10
173.97500000000002
20
-16.069723090152067
0
LWPOLYLINE
5
148
100
AcDbEntity
8
0
100
AcDbPolyline
90
8
70
1
43
0.0
10
169.21249999999998
20
-41.169723090152061
42
-0.41421356237307422
10
169.71250000000001
20
-40.669723090152061
10
182.71250000000003
20
-40.669723090152075
42
-0.41421356237312101
10
183.21250000000003
20
-41.169723090152061
10
183.21249999999998
20
-54.169723090152075
42
-0.4142135623730222
10
182.71250000000003
20
-54.669723090152075
10
169.71250000000001
20
-54.669723090152083
42
-0.41421356237313667
10
169.21250000000001
20
-54.169723090152075
0
LWPOLYLINE
5
149
100
AcDbEntity
8
0
100
AcDbPolyline
90
8
70
1
43
0.0
10
54.912500000000009
20
-41.169723090152061
42
-0.41421356237309503
10
55.412500000000009
20
-40.669723090152061
10
68.412499999999994
20
-40.669723090152061
42
-0.41421356237310025
10
68.912499999999994
20
-41.169723090152061
10
68.912499999999994
20
-54.169723090152075
42
-0.41421356237309503
10
68.412499999999994
20
-54.669723090152075
10
55.412500000000016
20
-54.669723090152075
42
-0.41421356237310025
10
54.912500000000009
20
-54.169723090152075
0
LWPOLYLINE
5
150
100
AcDbEntity
8
0
100
AcDbPolyline
90
8
70
1
43
0.0
10
212.07499999999999
20
-3.0697230901520678
42
-0.41421356237304624
10
212.57499999999999
20
-2.5697230901520678
10
225.57500000000002
20
-2.5697230901520673
42
-0.41421356237313273
10
226.07500000000002
20
-3.0697230901520678
10
226.07500000000005
20
-16.069723090152056
42
-0.4142135623730846
10
225.57500000000002
20
-16.569723090152067
10
212.57499999999999
20
-16.569723090152053
42
-0.41421356237312235
10
212.07499999999999
20
-16.069723090152067
0
LWPOLYLINE
5
151
100
AcDbEntity
8
0
100
AcDbPolyline
90
8
70
1
43
0.0
10
131.11250000000001
20
-41.169723090152061
42
-0.41421356237308982
10
131.61250000000001
20
-40.669723090152061
10
144.61250000000001
20
-40.669723090152054
42
-0.41421356237307422
10
145.11250000000001
20
-41.169723090152061
10
145.11250000000001
20
-54.169723090152075
42
-0.41421356237310542
10
144.61250000000001
20
-54.669723090152075
10
131.61250000000001
20
-54.66972309015209
42
-0.41421356237310025
10
131.11250000000001
20
-54.169723090152075
0
LWPOLYLINE
5
152
100
AcDbEntity
8
0
100
AcDbPolyline
90
8
70
1
43
0.0
10
193.02500000000003
20
-3.0697230901520722
10
193.02500000000003
20
-16.06972309015206
42
0.41421356237313794
10
193.52500000000003
20
-16.569723090152063
10
206.52500000000003
20
-16.569723090152067
42
0.4142135623730534
10
207.02500000000003
20
-16.069723090152056
10
207.02500000000003
20
-3.0697230901520678
42
0.41421356237310153
10
206.52500000000003
20
-2.5697230901520629
10
193.52500000000003
20
-2.5697230901520678
42
0.41421356237308005
0
LWPOLYLINE
5
153
100
AcDbEntity
8
0
100
AcDbPolyline
90
8
70
1
43
0.0
10
4.9062500000000053
20
-41.169723090152061
42
-0.41421356237309309
10
5.4062499999999991
20
-40.669723090152061
10
23.168749999999996
20
-40.669723090152061
42
-0.41421356237309764
10
23.668749999999999
20
-41.169723090152061
10
23.668750000000003
20
-54.169723090152075
42
-0.41421356237309764
10
23.168749999999999
20
-54.669723090152075
10
5.4062499999999858
20
-54.669723090152075
42
-0.41421356237308854
10
4.90625
20
-54.169723090152075
0
LWPOLYLINE
5
154
100
AcDbEntity
8
0
100
AcDbPolyline
90
8
70
1
43
0.0
10
20.787499999999994
20
-78.769723090152056
10
5.4062499999999858
20
-78.76972309015207
42
0.41421356237309503
10
4.9062500000000142
20
-79.269723090152084
10
4.90625
20
-92.269723090152098
42
0.41421356237305212
10
5.4062499999999858
20
-92.769723090152084
10
20.787499999999994
20
-92.76972309015207
42
0.41421356237310802
10
21.287499999999984
20
-92.26972309015207
10
21.287499999999994
20
-79.269723090152041
42
0.41421356237309503
0
LWPOLYLINE
5
155
100
AcDbEntity
8
0
100
AcDbPolyline
90
8
70
1
43
0.0
10
73.96250000000002
20
-41.169723090152061
10
73.96250000000002
20
-54.169723090152075
42
0.41421356237310542
10
74.462500000000006
20
-54.669723090152061
10
87.46250000000002
20
-54.669723090152075
42
0.41421356237310542
10
87.96250000000002
20
-54.169723090152075
10
87.96250000000002
20
-41.169723090152061
42
0.41421356237307422
10
87.46250000000002
20
-40.669723090152061
10
74.462500000000006
20
-40.669723090152061
42
0.41421356237309503
0
LWPOLYLINE
5
156
100
AcDbEntity
8
0
100
AcDbPolyline
90
8
70
1
43
0.0
10
78.724999999999994
20
-3.0697230901520678
42
-0.41421356237309664
10
79.224999999999994
20
-2.5697230901520678
10
92.224999999999994
20
-2.5697230901520616
42
-0.41421356237309437
10
92.725000000000009
20
-3.0697230901520678
10
92.725000000000009
20
-16.069723090152056
42
-0.41421356237311324
10
92.224999999999994
20
-16.569723090152067
10
79.224999999999994
20
-16.56972309015207
42
-0.41421356237309764
10
78.724999999999994
20
-16.069723090152067
0
LWPOLYLINE
5
157
100
AcDbEntity
8
0
100
AcDbPolyline
90
8
70
1
43
0.0
10
97.774999999999977
20
-3.0697230901520678
42
-0.41421356237310542
10
98.275000000000006
20
-2.5697230901520678
10
111.27500000000001
20
-2.5697230901520616
42
-0.41421356237309437
10
111.77500000000002
20
-3.0697230901520678
10
111.77500000000002
20
-16.069723090152056
42
-0.41421356237311324
10
111.27500000000001
20
-16.569723090152067
10
98.275000000000006
20
-16.569723090152074
42
-0.41421356237309503
10
97.775000000000006
20
-16.069723090152067
0
LWPOLYLINE
5
158
100
AcDbEntity
8
0
100
AcDbPolyline
90
8
70
1
43
0.0
10
202.54999999999998
20
-22.119723090152064
42
-0.41421356237307683
10
203.05000000000004
20
-21.619723090152068
10
216.05000000000004
20
-21.61972309015205
42
-0.41421356237310025
10
216.55000000000004
20
-22.119723090152064
10
216.55000000000004
20
-35.119723090152071
42
-0.41421356237304563
10
216.05000000000004
20
-35.619723090152071
10
203.05000000000004
20
-35.619723090152071
42
-0.41421356237313145
10
202.55000000000001
20
-35.119723090152071
0
LWPOLYLINE
5
159
100
AcDbEntity
8
0
100
AcDbPolyline
90
8
70
1
43
0.0
10
83.487499999999983
20
-60.219723090152073
42
-0.41421356237308982
10
83.987499999999997
20
-59.719723090152073
10
96.987500000000011
20
-59.719723090152065
42
-0.41421356237309503
10
97.487500000000011
20
-60.219723090152073
10
97.487500000000011
20
-73.219723090152073
42
-0.4142135623730846
10
96.987500000000011
20
-73.719723090152058
10
83.987499999999997
20
-73.719723090152073
42
-0.41421356237309503
10
83.487499999999983
20
-73.219723090152058
0
LWPOLYLINE
5
160
100
AcDbEntity
8
0
100
AcDbPolyline
90
8
70
1
43
0.0
10
21.575000000000006
20
-3.0697230901520722
10
21.575000000000006
20
-16.06972309015206
42
0.41421356237309892
10
22.074999999999996
20
-16.569723090152063
10
35.075000000000003
20
-16.569723090152067
42
0.41421356237310025
10
35.57500000000001
20
-16.069723090152056
10
35.575000000000003
20
-3.0697230901520678
42
0.4142135623730957
10
35.075000000000003
20
-2.5697230901520629
10
22.074999999999999
20
-2.5697230901520678
42
0.41421356237309798
0
LWPOLYLINE
5
161
100
AcDbEntity
8
0
100
AcDbPolyline
90
8
70
1
43
0.0
10
244.62500000000003
20
-2.5697230901520673
42
-0.41421356237313273
10
245.12500000000003
20
-3.0697230901520678
10
245.12500000000006
20
-16.069723090152056
42
-0.4142135623730846
10
244.62500000000003
20
-16.569723090152067
10
231.625
20
-16.569723090152053
42
-0.41421356237312235
10
231.125
20
-16.069723090152067
10
231.125
20
-3.0697230901520722
42
-0.41421356237304885
10
231.625
20
-2.5697230901520678
0
LWPOLYLINE
5
162
100
AcDbEntity
8
0
100
AcDbPolyline
90
8
70
1
43
0.0
10
112.0625
20
-41.169723090152061
42
-0.41421356237308982
10
112.56250000000001
20
-40.669723090152061
10
125.5625
20
-40.669723090152054
42
-0.41421356237307422
10
126.06250000000001
20
-41.169723090152061
10
126.0625
20
-54.169723090152075
42
-0.41421356237310542
10
125.5625
20
-54.669723090152075
10
112.56250000000001
20
-54.66972309015209
42
-0.41421356237310025
10
112.0625
20
-54.169723090152075
0
LWPOLYLINE
5
163
100
AcDbEntity
8
0
100
AcDbPolyline
90
8
70
1
43
0.0
10
52.531250000000007
20
-79.26972309015207
42
-0.41421356237309503
10
53.031250000000007
20
-78.76972309015207
10
68.412499999999994
20
-78.769723090152041
42
-0.41421356237310025
10
68.912499999999994
20
-79.269723090152041
10
68.912500000000009
20
-92.26972309015207
42
-0.4142135623730846
10
68.412499999999994
20
-92.769723090152084
10
53.031250000000014
20
-92.76972309015207
42
-0.41421356237310542
10
52.531250000000007
20
-92.269723090152084
0
LWPOLYLINE
5
164
100
AcDbEntity
8
0
100
AcDbPolyline
90
8
70
1
43
0.0
10
7.2874999999999996
20
-22.119723090152064
42
-0.41421356237309631
10
7.7875000000000005
20
-21.619723090152068
10
20.787499999999994
20
-21.619723090152068
42
-0.41421356237310025
10
21.287500000000001
20
-22.119723090152064
10
21.287500000000001
20
-35.119723090152071
42
-0.41421356237309503
10
20.787500000000001
20
-35.619723090152071
10
7.7874999999999872
20
-35.619723090152071
42
-0.41421356237308721
10
7.2874999999999996
20
-35.119723090152071
0
LWPOLYLINE
5
165
100
AcDbEntity
8
0
100
AcDbPolyline
90
8
70
1
43
0.0
10
235.10000000000002
20
-21.619723090152068
42
-0.41421356237313145
10
235.60000000000002
20
-22.119723090152064
10
235.60000000000005
20
-35.119723090152071
42
-0.41421356237307683
10
235.10000000000002
20
-35.619723090152071
10
222.10000000000002
20
-35.619723090152092
42
-0.41421356237310025
10
221.59999999999999
20
-35.119723090152071
10
221.59999999999999
20
-22.119723090152057
42
-0.41421356237304041
10
222.10000000000002
20
-21.619723090152068
0
LWPOLYLINE
5
166
100
AcDbEntity
8
0
100
AcDbPolyline
90
8
70
1
43
0.0
10
216.83750000000003
20
-60.219723090152073
42
-0.4142135623730222
10
217.33750000000001
20
-59.719723090152073
10
230.33750000000001
20
-59.719723090152073
42
-0.41421356237313145
10
230.83750000000003
20
-60.219723090152073
10
230.83750000000006
20
-73.219723090152073
42
-0.414213562373069
10
230.33750000000001
20
-73.719723090152058
10
217.33750000000001
20
-73.719723090152044
42
-0.41421356237312101
10
216.83750000000001
20
-73.219723090152058
0
LWPOLYLINE
5
167
100
AcDbEntity
8
0
100
AcDbPolyline
90
8
70
1
43
0.0
10
107.30000000000001
20
-22.119723090152064
42
-0.41421356237310542
10
107.80000000000001
20
-21.619723090152068
10
120.8
20
-21.619723090152064
42
-0.41421356237307161
10
121.30000000000001
20
-22.119723090152064
10
121.29999999999998
20
-35.119723090152071
42
-0.41421356237310025
10
120.8
20
-35.619723090152071
10
107.80000000000001
20
-35.619723090152078
42
-0.41421356237309243
10
107.30000000000001
20
-35.119723090152071
0
LWPOLYLINE
5
168
100
AcDbEntity
8
0
100
AcDbPolyline
90
8
70
1
43
0.0
10
44.600000000000009
20
-78.769723090152056
10
29.21875
20
-78.76972309015207
42
0.41421356237310542
10
28.718749999999993
20
-79.269723090152084
10
28.71875
20
-92.269723090152084
42
0.41421356237310025
10
29.21875
20
-92.769723090152084
10
44.600000000000001
20
-92.769723090152084
42
0.4142135623730846
10
45.100000000000016
20
-92.26972309015207
10
45.099999999999994
20
-79.269723090152041
42
0.41421356237308982
0
LWPOLYLINE
5
169
100
AcDbEntity
8
0
100
AcDbPolyline
90
8
70
1
43
0.0
10
63.650000000000006
20
-21.619723090152064
42
-0.41421356237309764
10
64.150000000000006
20
-22.119723090152064
10
64.149999999999991
20
-35.119723090152071
42
-0.41421356237309764
10
63.650000000000006
20
-35.619723090152071
10
50.650000000000013
20
-35.619723090152071
42
-0.41421356237310025
10
50.150000000000006
20
-35.119723090152071
10
50.150000000000006
20
-22.119723090152057
42
-0.41421356237308982
10
50.650000000000006
20
-21.619723090152068
0
LWPOLYLINE
5
170
100
AcDbEntity
8
0
100
AcDbPolyline
90
8
70
1
43
0.0
10
175.75000000000003
20
-94.794723090152075
10
175.75
20
-95.79472309015209
42
0.41421356237309503
10
176.25
20
-96.294723090152075
10
275.25000000000006
20
-96.294723090152075
42
0.41421356237309503
10
275.75
20
-95.794723090152075
10
275.75
20
-94.794723090152061
42
0.41421356237309503
10
275.25
20
-94.294723090152075
10
176.25
20
-94.294723090152075
42
0.41421356237309503
0
LWPOLYLINE
5
171
100
AcDbEntity
8
0
100
AcDbPolyline
90
8
70
1
43
0.0
10
241.03125
20
-73.219723090152073
10
241.03125
20
-60.219723090152058
42
0.41421356237309503
10
240.53124999999997
20
-59.719723090152065
10
233.33750000000003
20
-59.719723090152065
42
0.41421356237308982
10
232.83750000000003
20
-60.219723090152051
10
232.83750000000001
20
-73.219723090152058
42
0.41421356237309503
10
233.33750000000003
20
-73.719723090152058
10
240.53124999999997
20
-73.719723090152073
42
0.41421356237308982
0
LWPOLYLINE
5
172
100
AcDbEntity
8
0
100
AcDbPolyline
90
8
70
1
43
0.0
10
193.40625000000011
20
-92.269723090152084
10
193.40625000000011
20
-79.269723090152056
42
0.41421356237309503
10
192.90625000000006
20
-78.76972309015207
10
186.96875000000003
20
-78.76972309015207
42
0.41421356237310025
10
186.46875
20
-79.26972309015207
10
186.46875
20
-92.269723090152098
42
0.41421356237309503
10
186.96875000000003
20
-92.769723090152084
10
192.90625000000006
20
-92.769723090152098
42
0.41421356237310542
0
LWPOLYLINE
5
173
100
AcDbEntity
8
0
100
AcDbPolyline
90
8
70
1
43
0.0
10
33.862500000000004
20
-54.169723090152075
10
33.862500000000004
20
-41.169723090152061
42
0.41421356237309764
10
33.362499999999997
20
-40.669723090152061
10
26.168750000000003
20
-40.669723090152061
42
0.41421356237309764
10
25.668749999999996
20
-41.169723090152061
10
25.668749999999999
20
-54.169723090152075
42
0.41421356237309764
10
26.168750000000003
20
-54.669723090152061
10
33.362499999999997
20
-54.669723090152075
42
0.41421356237309764
0
LWPOLYLINE
5
174
100
AcDbEntity
8
0
100
AcDbPolyline
90
8
70
1
43
0.0
10
23.787500000000001
20
-35.619723090152064
10
28.600000000000001
20
-35.619723090152064
42
0.41421356237309764
10
29.100000000000001
20
-35.119723090152064
10
29.100000000000001
20
-22.119723090152071
42
0.41421356237309503
10
28.600000000000001
20
-21.619723090152064
10
23.787500000000001
20
-21.619723090152071
42
0.41421356237309764
10
23.287499999999994
20
-22.119723090152075
10
23.287500000000001
20
-35.119723090152071
42
0.41421356237309503
0
LWPOLYLINE
5
175
100
AcDbEntity
8
0
100
AcDbPolyline
90
8
70
1
43
0.0
10
50.531250000000014
20
-92.269723090152084
10
50.531250000000014
20
-79.269723090152041
42
0.41421356237308982
10
50.031250000000007
20
-78.769723090152056
10
47.599999999999973
20
-78.769723090152041
42
0.41421356237310025
10
47.099999999999973
20
-79.269723090152041
10
47.099999999999973
20
-92.269723090152098
42
0.41421356237309503
10
47.599999999999973
20
-92.769723090152084
10
50.031250000000007
20
-92.769723090152098
42
0.41421356237310542
0
LWPOLYLINE
5
176
100
AcDbEntity
8
0
100
AcDbPolyline
90
8
70
1
43
0.0
10
211.90625
20
-92.769723090152084
10
214.33750000000003
20
-92.769723090152084
42
0.41421356237310542
10
214.83750000000009
20
-92.269723090152084
10
214.83750000000003
20
-79.269723090152041
42
0.41421356237309503
10
214.33750000000003
20
-78.769723090152056
10
211.90625
20
-78.769723090152041
42
0.41421356237310025
10
211.40625
20
-79.269723090152041
10
211.40625
20
-92.269723090152098
42
0.41421356237309503
0
LWPOLYLINE
5
177
100
AcDbEntity
8
0
100
AcDbPolyline
90
8
70
1
43
0.0
10
262.46250000000009
20
-92.269723090152084
10
262.46250000000009
20
-79.269723090152056
42
0.41421356237309503
10
261.96250000000009
20
-78.76972309015207
10
259.53125000000006
20
-78.76972309015207
42
0.41421356237310025
10
259.03125
20
-79.26972309015207
10
259.03125
20
-92.269723090152098
42
0.41421356237309503
10
259.53125000000006
20
-92.769723090152084
10
261.96250000000009
20
-92.769723090152098
42
0.41421356237310542
0
LWPOLYLINE
5
178
100
AcDbEntity
8
0
100
AcDbPolyline
90
8
70
1
43
0.0
10
121.96875000000003
20
-92.269723090152084
10
121.96875000000003
20
-79.26972309015207
42
0.41421356237308982
10
121.46875000000001
20
-78.769723090152098
10
91.725000000000009
20
-78.76972309015207
42
0.41421356237310025
10
91.225000000000023
20
-79.269723090152084
10
91.225000000000023
20
-92.269723090152098
42
0.41421356237309503
10
91.725000000000023
20
-92.769723090152084
10
121.46875000000001
20
-92.769723090152098
42
0.41421356237310542
0
LWPOLYLINE
5
179
100
AcDbEntity
8
0
100
AcDbPolyline
90
8
70
1
43
0.0
10
23.787499999999959
20
-92.769723090152084
10
26.21875
20
-92.769723090152084
42
0.41421356237310542
10
26.71875
20
-92.269723090152084
10
26.71875
20
-79.269723090152041
42
0.41421356237309503
10
26.21875
20
-78.769723090152056
10
23.787499999999959
20
-78.769723090152041
42
0.41421356237310025
10
23.287499999999959
20
-79.269723090152041
10
23.287499999999959
20
-92.269723090152098
42
0.41421356237309503
0
LWPOLYLINE
5
180
100
AcDbEntity
8
0
100
AcDbPolyline
90
8
70
1
43
0.0
10
257.15000000000003
20
-35.619723090152064
10
261.96249999999998
20
-35.619723090152064
42
0.41421356237309764
10
262.46249999999998
20
-35.119723090152064
10
262.46249999999998
20
-22.119723090152071
42
0.41421356237309503
10
261.96249999999998
20
-21.619723090152064
10
257.15000000000003
20
-21.619723090152071
42
0.41421356237309764
10
256.64999999999998
20
-22.119723090152075
10
256.65000000000003
20
-35.119723090152071
42
0.41421356237309503
0
LWPOLYLINE
5
181
100
AcDbEntity
8
0
100
AcDbPolyline
90
8
70
1
43
0.0
10
71.412499999999994
20
-92.769723090152098
10
74.96875
20
-92.769723090152098
42
0.41421356237310542
10
75.46875
20
-92.269723090152112
10
75.468749999999986
20
-79.26972309015207
42
0.41421356237309503
10
74.96875
20
-78.769723090152084
10
71.41249999999998
20
-78.76972309015207
42
0.41421356237310025
10
70.912499999999994
20
-79.26972309015207
10
70.912499999999994
20
-92.269723090152112
42
0.41421356237309503
0
LWPOLYLINE
5
182
100
AcDbEntity
8
0
100
AcDbPolyline
90
8
70
1
43
0.0
10
175.46875
20
-92.269723090152084
10
175.46875
20
-79.269723090152041
42
0.41421356237309503
10
174.96875000000003
20
-78.769723090152041
10
152.375
20
-78.769723090152041
42
0.41421356237310025
10
151.875
20
-79.269723090152041
10
151.87499999999997
20
-92.269723090152098
42
0.41421356237309503
10
152.375
20
-92.769723090152084
10
174.96875
20
-92.769723090152098
42
0.41421356237310542
0
LWPOLYLINE
5
183
100
AcDbEntity
8
0
100
AcDbPolyline
90
8
70
1
43
0.0
10
238.65000000000003
20
-92.269723090152084
10
238.65000000000003
20
-79.269723090152041
42
0.41421356237308982
10
238.15000000000003
20
-78.769723090152056
10
235.71875000000003
20
-78.769723090152041
42
0.41421356237310025
10
235.21875
20
-79.269723090152041
10
235.21875
20
-92.269723090152098
42
0.41421356237309503
10
235.71875000000003
20
-92.769723090152084
10
238.15000000000003
20
-92.769723090152098
42
0.41421356237310542
0
LWPOLYLINE
5
184
100
AcDbEntity
8
0
100
AcDbPolyline
90
24
70
1
43
0.0
10
250.762
20
-16.569723090152038
42
-0.41421356237302348
10
251.262
20
-17.069723090152067
10
251.262
20
-18.069723090152067
42
0.41421356237312235
10
251.762
20
-18.569723090152074
10
257.76200000000006
20
-18.569723090152067
42
0.41421356237304563
10
258.26200000000006
20
-18.069723090152067
10
258.26200000000006
20
-17.069723090152067
42
-0.41421356237302348
10
258.76200000000006
20
-16.569723090152067
10
274.63799999999998
20
-16.569723090152038
42
-0.41421356237302348
10
275.13799999999998
20
-17.069723090152067
10
275.13799999999998
20
-18.069723090152067
42
0.41421356237312235
10
275.63800000000003
20
-18.569723090152067
10
281.63799999999998
20
-18.569723090152067
42
0.41421356237307683
10
282.13799999999998
20
-18.069723090152067
10
282.13799999999998
20
-17.069723090152067
42
-0.41421356237307555
10
282.63799999999998
20
-16.569723090152067
10
282.72500000000002
20
-16.569723090152067
42
0.4142135623730846
10
283.22500000000002
20
-16.069723090152056
10
283.22500000000002
20
-3.0697230901520678
42
0.41421356237313273
10
282.72500000000002
20
-2.5697230901520629
10
250.67500000000001
20
-2.5697230901520678
42
0.41421356237304885
10
250.17500000000001
20
-3.0697230901520722
10
250.17500000000001
20
-16.069723090152067
42
0.41421356237312235
10
250.67500000000001
20
-16.569723090152063
0
LWPOLYLINE
5
185
100
AcDbEntity
8
0
100
AcDbPolyline
90
16
70
1
43
0.0
10
251.11824999999999
20
-74.219723090152058
42
-0.41421356237307422
10
251.61825000000005
20
-73.719723090152058
10
266.05625000000003
20
-73.719723090152073
42
0.41421356237301699
10
266.55625000000003
20
-73.219723090152073
10
266.55625000000003
20
-60.21972309015208
42
0.41421356237312623
10
266.05625000000003
20
-59.719723090152065
10
243.53125000000003
20
-59.719723090152073
42
0.414213562373069
10
243.03125
20
-60.219723090152058
10
243.03125
20
-73.219723090152058
42
0.41421356237313145
10
243.53125000000003
20
-73.719723090152058
10
243.61825000000005
20
-73.71972309015203
42
-0.4142135623730222
10
244.11825000000005
20
-74.219723090152058
10
244.11825000000005
20
-75.219723090152058
42
0.41421356237310542
10
244.61825000000005
20
-75.719723090152073
10
250.61825000000002
20
-75.719723090152073
42
0.41421356237307422
10
251.11825000000005
20
-75.219723090152073
0
ENDSEC
0
SECTION
2
OBJECTS
0
DICTIONARY
5
C
100
AcDbDictionary
3
ACAD_GROUP
350
D
3
ACAD_MLINESTYLE
350
17
0
DICTIONARY
5
D
100
AcDbDictionary
0
DICTIONARY
5
1A
330
C
100
AcDbDictionary
0
DICTIONARY
5
17
100
AcDbDictionary
0
ENDSEC
0
EOF
